<?xml version="1.0" encoding="UTF-8"?> <svg xmlns="http://www.w3.org/2000/svg" width="240" height="42" fill="none"><path fill="#071329" fill-rule="evenodd" d="m23.369 16.067-1.323-.262c-.715-.138-1.43-.259-2.125-.377-3.361-.57-6.242-1.06-6.242-2.945 0-1.812 2.28-2.637 5.252-2.637 5.049 0 9.12 1.872 11.807 3.382l4.784-8.98C28.458.544 23.634 0 18.3 0 8.468 0 1.893 5.174 1.69 12.926c-.204 7.168 3.704 11.175 13.109 12.765l1.547.262.347.059c4.858.825 7.287 1.238 7.287 3.303 0 1.994-2.199 2.8-5.17 2.8-6.23 0-10.138-2.236-13.375-4.169L0 36.906c4.682 3.302 11.338 5.034 18.667 5.034 8.712 0 17.445-3.786 17.445-14.014 0-6.221-4.295-10.228-12.743-11.859Zm212.254 2.134v10.953h-17.954L238.738.724h-4.967l-21.069 28.43v4.088h22.921v7.953H240V18.2h-4.377Zm-88.386 6.765c2.585-2.718 5.333-6.221 5.333-11.114 0-6.926-4.621-12.16-12.682-12.16-6.819 0-10.3 3.764-12.173 6.503l3.176 2.516c1.872-2.577 4.335-4.912 8.855-4.912 5.272 0 8.223 3.503 8.223 8.033 0 3.363-1.648 6.06-4.091 8.598l-15.003 15.362v3.403h27.644v-4.128h-21.15l11.868-12.12v.02Zm33.547-22.349a33.361 33.361 0 0 0-7.837-.926c-2.626 0-5.273.302-7.838.926-4.01.967-7.043 4.188-7.694 8.175a69.29 69.29 0 0 0 0 22.087c.651 4.007 3.684 7.228 7.694 8.195 2.586.624 5.212.926 7.838.926 2.625 0 5.272-.302 7.837-.926 4.01-.967 7.043-4.188 7.694-8.175a69.415 69.415 0 0 0 0-22.107c-.651-3.987-3.684-7.208-7.694-8.175Zm3.562 29.638c-.387 2.356-2.158 4.228-4.539 4.812-2.24.544-4.56.805-6.86.805-2.301 0-4.621-.282-6.861-.805-2.381-.564-4.173-2.456-4.559-4.832a64.792 64.792 0 0 1 0-20.799c.386-2.355 2.157-4.228 4.539-4.812a29.173 29.173 0 0 1 6.86-.805c2.3 0 4.621.282 6.86.805 2.382.564 4.173 2.457 4.56 4.812a64.917 64.917 0 0 1 0 20.819Zm29.883-18.403c0 4.893-2.748 8.396-5.333 11.114v-.02l-11.868 12.121h21.15v4.128h-27.644v-3.403l15.003-15.363c2.443-2.536 4.091-5.234 4.091-8.597 0-4.53-2.951-8.033-8.223-8.033-4.52 0-6.983 2.335-8.855 4.912l-3.176-2.516c1.873-2.739 5.354-6.504 12.173-6.504 8.061 0 12.682 5.235 12.682 12.161Zm-99.685 16.55c.102-.583.163-1.167.163-1.75h.082v-14.96h10.117v14.617c0 2.215-.204 4.41-.631 6.584-.631 3.261-3.217 5.819-6.514 6.443a36.093 36.093 0 0 1-13.313 0c-3.298-.624-5.883-3.182-6.514-6.443a34.193 34.193 0 0 1-.631-6.584V13.69h10.117v14.96c0 .584.061 1.168.163 1.772.162.846.834 1.53 1.71 1.691a9.527 9.527 0 0 0 3.542 0 2.108 2.108 0 0 0 1.709-1.711ZM91.766.947c1.18.242 2.117 1.148 2.34 2.336l-.02.02c.306 1.59.306 3.241 0 4.852a2.959 2.959 0 0 1-2.36 2.336h-.021a13.176 13.176 0 0 1-4.865 0h-.02a2.931 2.931 0 0 1-2.362-2.356 12.968 12.968 0 0 1 0-4.852c.224-1.188 1.16-2.094 2.361-2.336h.061a13.285 13.285 0 0 1 4.886 0ZM94.33 13.33H84.234v27.825h10.097V13.33Zm-56.774.06h10.097v27.826H37.557V13.389ZM47.43 3.342c-.224-1.188-1.16-2.094-2.34-2.335a13.285 13.285 0 0 0-4.886 0h-.062c-1.2.241-2.137 1.147-2.36 2.335a12.964 12.964 0 0 0 0 4.853 2.931 2.931 0 0 0 2.36 2.355h.02c1.609.302 3.258.302 4.866 0h.02a2.959 2.959 0 0 0 2.362-2.335c.305-1.61.305-3.262 0-4.853l.02-.02Zm26.32 9.967c3.502.664 6.23 3.362 6.901 6.825v.04a36.689 36.689 0 0 1 0 14.135v.08a8.66 8.66 0 0 1-6.9 6.846h-.082a37.905 37.905 0 0 1-14.29 0h-.081c-.082 0-.224-.04-.224-.04h-8.53V.724h10.097v12.362a38.725 38.725 0 0 1 13.11.222Zm-4.763 18.745a2.931 2.931 0 0 0 2.362-2.356h.02c.305-1.59.305-3.222 0-4.852a2.91 2.91 0 0 0-2.341-2.336 13.285 13.285 0 0 0-4.886 0h-.06a2.93 2.93 0 0 0-2.362 2.356 12.968 12.968 0 0 0 0 4.852 2.959 2.959 0 0 0 2.362 2.336h.02c1.608.302 3.257.302 4.865 0h.02Z" clip-rule="evenodd"></path></svg> 